<?xml version="1.0" ?><svg style="enable-background:new 0 0 32 32;" version="1.1" viewBox="0 0 32 32" xml:space="preserve" xmlns="http://www.w3.org/2000/svg" xmlns:xlink="http://www.w3.org/1999/xlink"><style type="text/css">
	.st0{fill:#B9F3F8;}
	.st1{fill:#55C1FA;}
	.st2{fill:#FBC34E;}
	.st3{opacity:0.05;}
	.st4{fill:#FFFFFF;}
	.st5{fill:#7A442A;}
	.st6{fill:#C77C58;}
	.st7{fill:#E4EDF2;}
	.st8{fill:#F25949;}
	.st9{fill:#FA9B55;}
	.st10{fill:#E5A533;}
	.st11{fill:#6FA7AB;}
	.st12{fill:#20A56C;}
	.st13{fill:#F2C09E;}
	.st14{fill:#F4E8D0;}
	.st15{fill:#F2AB38;}
	.st16{fill:#393B3D;}
	.st17{fill:#ACE4E5;}
	.st18{fill:#659899;}
	.st19{fill:#E3FAFC;}
	.st20{fill:#DDF1F2;}
	.st21{fill:#16F293;}
	.st22{fill:#5C3320;}
	.st23{fill:#AD410D;}
	.st24{fill:#8B9CA5;}
	.st25{fill:#B26C50;}
	.st26{fill:#DAE1E5;}
	.st27{fill:#425158;}
	.st28{fill:#829299;}
	.st29{fill:#A5795C;}
	.st30{fill:#7A7468;}
	.st31{fill:#7B3ABF;}
	.st32{fill:#B564FF;}
	.st33{fill:#2B617D;}
</style><g id="Magnifier"/><g id="Gear"/><g id="Home"/><g id="Shield"/><g id="Star"/><g id="Flash"/><g id="Heart"/><g id="Hearts"/><g id="Shopping_Bag"/><g id="Token"/><g id="Warning"/><g id="Warning_B"/><g id="Chat"/><g id="Diamond"/><g id="Hanger"/><g id="Warning_C"/><g id="Potion"/><g id="Hourglass"/><g id="Trophy"/><g id="Bomb"/><g id="Gem"/><g id="Spell_Book"/><g id="User"/><g id="Users"/><g id="Treasure_Chest"/><g id="Treasure_Chest_Open"/><g id="Sack"/><g id="Fishing_Pin"/><g id="Sword"/><g id="Sword_And_Shield"/><g id="Backpack"/><g id="Key"/><g id="Meat"><g><path class="st7" d="M6.575,23.152c-1.056-1.045-2.747-1.045-3.792,0c-1.045,1.056-1.045,2.747,0,3.791    c0.431,0.431,0.959,0.679,1.519,0.754c0.075,0.56,0.323,1.088,0.754,1.519c1.045,1.045,2.736,1.045,3.791,0    c1.045-1.045,1.045-2.736,0-3.791l1.021-1.021l-2.273-2.273L6.575,23.152z"/><path class="st7" d="M29.216,5.056c-0.431-0.431-0.959-0.679-1.519-0.754c-0.075-0.56-0.323-1.088-0.754-1.519    c-1.045-1.045-2.736-1.045-3.791,0c-1.045,1.045-1.045,2.736,0,3.792l-1.02,1.02l2.273,2.273l1.02-1.02    c1.056,1.045,2.747,1.045,3.792,0C30.261,7.792,30.261,6.101,29.216,5.056z"/><path class="st6" d="M21.196,6.659c-1.071-1.071-2.534-1.63-3.922-1.493c-1.174,0.115-2.168,0.697-2.8,1.64    c-2.04,3.047-4.619,5.627-7.667,7.667h0.001c-0.944,0.631-1.526,1.626-1.641,2.801c-0.136,1.385,0.423,2.851,1.493,3.92    l0.936,0.936l2.273,2.273l0.935,0.935c0.965,0.965,2.25,1.514,3.508,1.514c0.138,0,0.277-0.006,0.414-0.02    c1.174-0.116,2.169-0.698,2.8-1.641c2.041-3.047,4.62-5.627,7.666-7.666c0.943-0.631,1.526-1.625,1.641-2.8    c0.136-1.385-0.422-2.852-1.493-3.922l-0.935-0.935l-2.273-2.273L21.196,6.659z"/></g></g><g id="Skull"/><g id="Store"/><g id="Helmet"/><g id="Anvil"/><g id="Axe"/><g id="Spear"/><g id="Food"/><g id="Bow"/><g id="Scroll"/><g id="Armor"/><g id="Hat"/><g id="Wand"/><g id="Map"/><g id="Mushroom"/><g id="Feather"/><g id="Wings"/><g id="Fish"/></svg>