<?xml version="1.0" encoding="utf-8"?>
<!-- Generator: Adobe Illustrator 16.0.0, SVG Export Plug-In . SVG Version: 6.00 Build 0)  -->
<!DOCTYPE svg PUBLIC "-//W3C//DTD SVG 1.1//EN" "http://www.w3.org/Graphics/SVG/1.1/DTD/svg11.dtd">
<svg version="1.1" id="Layer_1" xmlns="http://www.w3.org/2000/svg" xmlns:xlink="http://www.w3.org/1999/xlink" x="0px" y="0px"
	 width="64px" height="64px" viewBox="0 0 64 64" enable-background="new 0 0 64 64" xml:space="preserve">
<g id="Ellipse_13">
	<g>
		<path fill="#FEFEF9" d="M45,12c-0.962,0-1.899,0.097-2.82,0.242C38.411,5.537,31.24,1,23,1C10.85,1,1,10.85,1,23
			c0,5.138,1.775,9.854,4.728,13.598C5.269,38.324,5,40.129,5,42c0,11.598,9.402,21,21,21c9.532,0,17.568-6.356,20.134-15.058
			C55.544,47.354,63,39.559,63,30C63,20.059,54.941,12,45,12z"/>
	</g>
</g>
<g id="Ellipse_12">
	<g>
		<circle fill="#FFD97D" cx="29" cy="32" r="11"/>
	</g>
</g>
<g id="Rectangle_9">
	<g>
		<path fill="#2B3139" d="M26,58c-8.837,0-16-7.163-16-16c0-0.553-0.448-1-1-1c-0.553,0-1,0.447-1,1c0,9.941,8.059,18,18,18
			c0.552,0,1-0.447,1-1S26.552,58,26,58z M29,24c-4.418,0-8,3.582-8,8c0,0.553,0.447,1,1,1c0.552,0,1-0.447,1-1c0-3.313,2.687-6,6-6
			c0.552,0,1-0.448,1-1C30,24.447,29.552,24,29,24z M29,20c-6.628,0-12,5.373-12,12s5.372,12,12,12c6.627,0,12-5.373,12-12
			S35.627,20,29,20z M29,42c-5.522,0-10-4.478-10-10s4.478-10,10-10s10,4.478,10,10S34.522,42,29,42z M45,11
			c-0.784,0-1.553,0.062-2.312,0.154C38.662,4.479,31.363,0,23,0C10.297,0,0,10.298,0,23c0,5.19,1.74,9.964,4.641,13.812
			C4.237,38.479,4,40.21,4,42c0,12.15,9.85,22,22,22c9.735,0,17.98-6.331,20.878-15.095C56.489,47.962,64,39.859,64,30
			C64,19.507,55.493,11,45,11z M45.349,46.982C43.132,55.612,35.322,62,26,62C14.954,62,6,53.046,6,42
			c0-1.953,0.293-3.836,0.815-5.62C3.808,32.746,2,28.085,2,23C2,11.402,11.402,2,23,2c8.11,0,15.134,4.605,18.632,11.337
			C42.721,13.117,43.847,13,45,13c9.389,0,17,7.611,17,17C62,39.271,54.575,46.795,45.349,46.982z M23,6c0.552,0,1-0.448,1-1
			c0-0.553-0.448-1-1-1C12.507,4,4,12.507,4,23c0,0.553,0.447,1,1,1c0.552,0,1-0.447,1-1C6,13.611,13.611,6,23,6z"/>
	</g>
</g>
</svg>
